<?xml version="1.0" encoding="utf-8"?><svg xmlns="http://www.w3.org/2000/svg"
    xmlns:xlink="http://www.w3.org/1999/xlink">
    <symbol viewBox="0 0 405 29" id="title-decor-left" fill="none">
            <rect x="29" y="13" width="374" height="2" fill="#DA8836"/>
            <rect x="395" y="13.9748" width="7" height="7" transform="rotate(-45 395 13.9748)" fill="#DA8836"/>
            <rect x="21" y="13.9748" width="7" height="7" transform="rotate(-45 21 13.9748)" fill="#DA8836"/>
            <rect x="6.36392" y="14.0251" width="17.8345" height="17.8345" transform="rotate(-45 6.36392 14.0251)" stroke="#DA8836" stroke-width="2"/>
            <rect x="1.41421" y="13.9118" width="7.73952" height="7.73952" transform="rotate(-45 1.41421 13.9118)" stroke="#DA8836" stroke-width="2"/>
    </symbol>
    <symbol  id="title-decor-right" fill="none">
        <rect width="362" height="2" transform="matrix(-1 0 0 1 366 13)" fill="#DA8836"/>
        <rect width="7" height="7" transform="matrix(-0.707107 -0.707107 -0.707107 0.707107 9.99995 13.9748)" fill="#DA8836"/>
        <rect width="7" height="7" transform="matrix(-0.707107 -0.707107 -0.707107 0.707107 373.899 13.9748)" fill="#DA8836"/>
        <rect x="-1.41421" width="17.8345" height="17.8345" transform="matrix(-0.707107 -0.707107 -0.707107 0.707107 387.535 13.0251)" stroke="#DA8836" stroke-width="2"/>
        <rect x="-1.41421" width="7.73952" height="7.73952" transform="matrix(-0.707107 -0.707107 -0.707107 0.707107 392.485 12.9118)" stroke="#DA8836" stroke-width="2"/>
    </symbol>
</svg>
