<?xml version="1.0" encoding="iso-8859-1"?>
<!-- Generator: Adobe Illustrator 18.0.0, SVG Export Plug-In . SVG Version: 6.00 Build 0)  -->
<!DOCTYPE svg PUBLIC "-//W3C//DTD SVG 1.1//EN" "http://www.w3.org/Graphics/SVG/1.1/DTD/svg11.dtd">
<svg version="1.1" id="pepper" xmlns="http://www.w3.org/2000/svg" xmlns:xlink="http://www.w3.org/1999/xlink" x="0px" y="0px"
	 viewBox="0 0 130.499 130.499" style="enable-background:new 0 0 130.499 130.499;" xml:space="preserve">

<style>
    .pepper-body {
        fill:#fa5252;
    }

    .pepper-head {
        fill:#663F30;
    }

    .pepper-body-shadow {
        fill:#e03131;
    }

    .pepper-head-shadow {
        fill:#553428;
    }
</style>

<g>
	<g>
		<path class="pepper-body" d="M99.875,77.76c0.01-0.909-0.09-1.819-0.14-2.729c-0.07-0.91-0.13-1.82-0.2-2.73
			c-0.21-1.811-0.42-3.62-0.68-5.42c-0.16-0.891-0.32-1.77-0.48-2.66c-0.08-0.44-0.16-0.89-0.24-1.32
			c-0.069-0.449-0.16-0.89-0.27-1.319c-0.4-1.72-0.78-3.45-1.23-5.13c-0.479-1.66-0.97-3.301-1.43-4.9
			c-0.55-1.58-1.09-3.12-1.62-4.62c-0.13-0.38-0.26-0.76-0.4-1.12c-0.14-0.359-0.289-0.72-0.439-1.08
			c-0.29-0.709-0.58-1.41-0.86-2.109c-0.29-0.69-0.569-1.37-0.85-2.04c-0.28-0.681-0.59-1.3-0.88-1.931
			c-0.59-1.26-1.16-2.459-1.7-3.6c-0.271-0.59-0.56-1.12-0.84-1.641c-0.28-0.529-0.55-1.049-0.81-1.539
			c-0.529-0.99-1.029-1.93-1.489-2.78c-0.12-0.22-0.23-0.43-0.341-0.64c-0.119-0.19-0.239-0.39-0.35-0.58
			c-0.229-0.38-0.45-0.75-0.65-1.09c-1.659-2.77-2.609-4.36-2.609-4.36c-0.85-1.41-1.97-2.8-3.271-3.96
			c-2.769-2.47-6.109-3.88-9.54-4.25c-1.069,0.76-2.13,1.8-3.149,3.16c-4.65,6.13-6.09,2.21-12.79,7.31
			c-1.16,0.89-2.021,1.87-2.62,2.88c-1.271,5.82,0.55,12.14,5.31,16.4l0.11,0.1c0,0,1.07,0.95,2.94,2.62
			c0.239,0.21,0.489,0.44,0.75,0.671c0.13,0.109,0.26,0.229,0.39,0.35c0.14,0.13,0.27,0.26,0.4,0.39
			c0.529,0.53,1.109,1.101,1.739,1.71c0.311,0.301,0.63,0.62,0.96,0.95c0.33,0.319,0.69,0.659,1,1.021
			c0.66,0.719,1.36,1.469,2.08,2.26c0.36,0.399,0.76,0.789,1.11,1.22c0.35,0.43,0.71,0.86,1.08,1.3c0.37,0.45,0.74,0.9,1.13,1.359
			c0.189,0.23,0.38,0.461,0.58,0.701c0.18,0.23,0.359,0.48,0.54,0.72c0.729,0.979,1.49,1.989,2.26,3.03
			c0.71,1.069,1.44,2.17,2.19,3.279c0.71,1.131,1.369,2.311,2.09,3.5c0.189,0.301,0.35,0.61,0.5,0.91
			c0.17,0.311,0.33,0.62,0.49,0.93c0.319,0.621,0.649,1.25,0.979,1.881c0.61,1.27,1.18,2.569,1.78,3.89
			c0.26,0.67,0.52,1.34,0.79,2.021c0.25,0.68,0.55,1.35,0.76,2.039c0.44,1.381,0.96,2.76,1.31,4.17
			c0.19,0.711,0.391,1.42,0.58,2.131c0.16,0.709,0.311,1.42,0.471,2.129c0.08,0.351,0.159,0.711,0.239,1.061
			c0.07,0.359,0.12,0.721,0.19,1.08c0.12,0.721,0.24,1.43,0.36,2.141c0.109,0.709,0.18,1.42,0.27,2.129
			c0.08,0.711,0.18,1.42,0.22,2.131c0.051,0.699,0.101,1.4,0.15,2.1c0.04,0.7,0.04,1.391,0.07,2.07c0.069,1.38,0,2.729,0,4.05
			c-0.12,2.63-0.301,5.149-0.65,7.47c-0.33,2.31-0.72,4.439-1.17,6.31c-0.43,1.869-0.9,3.49-1.32,4.81
			c-0.42,1.33-0.81,2.34-1.069,3.03c-0.141,0.34-0.24,0.6-0.311,0.77c-0.04,0.08-0.06,0.15-0.09,0.19
			c-0.01,0.05-0.03,0.069-0.03,0.069v0.011c-0.229,0.51-0.12,1.12,0.32,1.51c0.54,0.479,1.36,0.43,1.84-0.11
			c0,0,0.021-0.01,0.05-0.05c0.04-0.05,0.09-0.1,0.16-0.18c0.13-0.17,0.33-0.41,0.58-0.72c0.5-0.631,1.21-1.54,2.05-2.771
			c0.851-1.21,1.84-2.72,2.88-4.51c1.06-1.78,2.15-3.86,3.24-6.19c1.12-2.33,2.15-4.939,3.15-7.77c0.46-1.42,0.979-2.881,1.37-4.41
			c0.21-0.76,0.439-1.53,0.63-2.32c0.189-0.789,0.37-1.59,0.56-2.4c0.2-0.809,0.34-1.629,0.49-2.459c0.15-0.83,0.33-1.67,0.45-2.53
			c0.109-0.851,0.229-1.71,0.35-2.57c0.05-0.43,0.12-0.87,0.16-1.31c0.04-0.44,0.08-0.87,0.12-1.311c0.07-0.89,0.14-1.779,0.22-2.67
			c0.03-0.89,0.061-1.789,0.09-2.68C99.985,81.399,99.905,79.59,99.875,77.76z"/>
		<path class="pepper-head" d="M52.615,24.68c6.7-5.1,8.14-1.18,12.79-7.31c1.02-1.36,2.08-2.4,3.149-3.16
			c3.771-2.64,7.721-1.62,11.16,2.41c-0.859-1.01-1.41-2.34-2.39-3.35c-2.37-2.47-5.231-3.71-8.68-3.52
			c-3.091,0.17-6.11,1.99-9.23,1.63c-2.53-0.29-4.77-1.9-6.57-3.61c-0.3-0.29-0.6-0.57-0.899-0.86c-0.431-0.36-0.83-0.75-1.28-1.11
			c-0.441-0.36-0.89-0.72-1.35-1.06c-0.46-0.35-0.94-0.67-1.42-1c-0.48-0.32-0.98-0.6-1.471-0.91c-0.52-0.26-1.01-0.55-1.529-0.79
			c-0.521-0.23-1.021-0.48-1.551-0.67c-0.25-0.1-0.51-0.2-0.77-0.29c-0.26-0.1-0.521-0.171-0.78-0.25
			c-0.26-0.07-0.51-0.16-0.76-0.23c-0.26-0.05-0.521-0.11-0.771-0.17c-0.5-0.13-1.01-0.19-1.489-0.26
			c-0.481-0.08-0.96-0.1-1.42-0.13C37.135,0.03,36.905,0,36.685,0c-0.22,0.01-0.439,0.01-0.649,0.02c-0.84-0.02-1.61,0.11-2.29,0.18
			c-0.67,0.12-1.25,0.23-1.72,0.34c-0.931,0.27-1.46,0.42-1.46,0.42s0.55-0.07,1.5-0.19c0.479-0.04,1.06-0.05,1.72-0.08
			c0.66,0.04,1.41,0.03,2.21,0.17c0.2,0.02,0.4,0.05,0.61,0.08c0.199,0.03,0.409,0.09,0.619,0.13c0.421,0.1,0.86,0.17,1.301,0.32
			c0.43,0.14,0.88,0.26,1.319,0.461c0.221,0.08,0.45,0.17,0.67,0.26c0.23,0.09,0.44,0.21,0.67,0.31c0.221,0.11,0.44,0.21,0.671,0.33
			c0.22,0.12,0.43,0.25,0.649,0.38c0.45,0.23,0.87,0.53,1.3,0.81c0.431,0.29,0.841,0.62,1.261,0.92c0.39,0.34,0.81,0.66,1.19,1.02
			c0.38,0.36,0.77,0.71,1.13,1.09c0.37,0.37,0.721,0.75,1.061,1.14c0.35,0.37,0.67,0.79,0.989,1.17c0.311,0.4,0.62,0.79,0.921,1.19
			c0.569,0.79,1.109,1.58,1.579,2.34c0.101,0.14,0.19,0.29,0.271,0.43c0.45,1.5,0.769,3.22,0.14,4.71
			c-0.58,1.41-1.859,2.39-2.729,3.61c-3.22,4.53-2.92,11.69,0.01,16.291c-0.18-0.41-2.41-5.681,0.37-10.291
			C50.595,26.55,51.455,25.57,52.615,24.68z"/>
	</g>
	<g>
		<path class="pepper-body-shadow"  d="M99.875,77.76c0.01-0.909-0.09-1.819-0.14-2.729c-0.07-0.91-0.13-1.82-0.2-2.73
			c-0.21-1.811-0.42-3.62-0.68-5.42c-0.16-0.891-0.32-1.77-0.48-2.66c-0.08-0.44-0.16-0.89-0.24-1.32
			c-0.069-0.449-0.16-0.89-0.27-1.319c-0.4-1.72-0.78-3.45-1.23-5.13c-0.479-1.66-0.97-3.301-1.43-4.9
			c-0.55-1.58-1.09-3.12-1.62-4.62c-0.13-0.38-0.26-0.76-0.4-1.12c-0.14-0.359-0.289-0.72-0.439-1.08
			c-0.29-0.709-0.58-1.41-0.86-2.109c-0.29-0.69-0.569-1.37-0.85-2.04c-0.28-0.681-0.59-1.3-0.88-1.931
			c-0.59-1.26-1.16-2.459-1.7-3.6c-0.271-0.59-0.56-1.12-0.84-1.641c-0.28-0.529-0.55-1.049-0.81-1.539
			c-0.529-0.99-1.029-1.93-1.489-2.78c-0.12-0.22-0.23-0.43-0.341-0.64c-0.119-0.19-0.239-0.39-0.35-0.58
			c-0.229-0.38-0.45-0.75-0.65-1.09c-1.659-2.77-2.609-4.36-2.609-4.36c-0.85-1.41-1.97-2.8-3.271-3.96
			c-2.769-2.47-6.109-3.88-9.54-4.25c-1.069,0.76-2.13,1.8-3.149,3.16c-2.594,3.419-4.189,3.712-6.256,4.187
			C84.474,38.769,99.91,75.11,85.827,102.862c0.014,1.063-0.012,2.111-0.012,3.138c-0.12,2.63-0.301,5.149-0.65,7.47
			c-0.33,2.31-0.72,4.439-1.17,6.31c-0.43,1.869-0.9,3.49-1.32,4.81c-0.42,1.33-0.81,2.34-1.069,3.03
			c-0.141,0.34-0.24,0.6-0.311,0.77c-0.04,0.08-0.06,0.15-0.09,0.19c-0.01,0.05-0.03,0.069-0.03,0.069v0.011
			c-0.229,0.51-0.12,1.12,0.32,1.51c0.54,0.479,1.36,0.43,1.84-0.11c0,0,0.021-0.01,0.05-0.05c0.04-0.05,0.09-0.1,0.16-0.18
			c0.13-0.17,0.33-0.41,0.58-0.72c0.5-0.631,1.21-1.54,2.05-2.771c0.851-1.21,1.84-2.72,2.88-4.51c1.06-1.78,2.15-3.86,3.24-6.19
			c1.12-2.33,2.15-4.939,3.15-7.77c0.46-1.42,0.979-2.881,1.37-4.41c0.21-0.76,0.439-1.53,0.63-2.32c0.189-0.789,0.37-1.59,0.56-2.4
			c0.2-0.809,0.34-1.629,0.49-2.459c0.15-0.83,0.33-1.67,0.45-2.53c0.109-0.851,0.229-1.71,0.35-2.57c0.05-0.43,0.12-0.87,0.16-1.31
			c0.04-0.44,0.08-0.87,0.12-1.311c0.07-0.89,0.14-1.779,0.22-2.67c0.03-0.89,0.061-1.789,0.09-2.68
			C99.985,81.399,99.905,79.59,99.875,77.76z"/>
		<path class="pepper-head-shadow"  d="M65.405,17.37c1.02-1.36,2.08-2.4,3.149-3.16c3.771-2.64,7.721-1.62,11.16,2.41
			c-0.859-1.01-1.41-2.34-2.39-3.35c-2.37-2.47-5.231-3.71-8.68-3.52c-3.091,0.17-6.11,1.99-9.23,1.63
			c-2.53-0.29-4.77-1.9-6.57-3.61c-0.3-0.29-0.6-0.57-0.899-0.86c-0.431-0.36-0.83-0.75-1.28-1.11c-0.441-0.36-0.89-0.72-1.35-1.06
			c-0.46-0.35-0.94-0.67-1.42-1c-0.48-0.32-0.98-0.6-1.471-0.91c-0.52-0.26-1.01-0.55-1.529-0.79c-0.521-0.23-1.021-0.48-1.551-0.67
			c-0.25-0.1-0.51-0.2-0.77-0.29c-0.26-0.1-0.521-0.171-0.78-0.25c-0.26-0.07-0.51-0.16-0.76-0.23c-0.26-0.05-0.521-0.11-0.771-0.17
			c-0.5-0.13-1.01-0.19-1.489-0.26c-0.481-0.08-0.96-0.1-1.42-0.13C37.135,0.03,36.905,0,36.685,0c-0.22,0.01-0.439,0.01-0.649,0.02
			c-0.84-0.02-1.61,0.11-2.29,0.18c-0.67,0.12-1.25,0.23-1.72,0.34c-0.931,0.27-1.46,0.42-1.46,0.42s0.55-0.07,1.5-0.19
			c0.479-0.04,1.06-0.05,1.72-0.08c0.66,0.04,1.41,0.03,2.21,0.17c0.2,0.02,0.4,0.05,0.61,0.08c0.199,0.03,0.409,0.09,0.619,0.13
			c0.421,0.1,0.86,0.17,1.301,0.32c0.43,0.14,0.88,0.26,1.319,0.461c0.221,0.08,0.45,0.17,0.67,0.26c0.23,0.09,0.44,0.21,0.67,0.31
			c0.221,0.11,0.44,0.21,0.671,0.33c0.22,0.12,0.43,0.25,0.649,0.38c0.45,0.23,0.87,0.53,1.3,0.81c0.431,0.29,0.841,0.62,1.261,0.92
			c0.39,0.34,0.81,0.66,1.19,1.02c0.38,0.36,0.77,0.71,1.13,1.09c0.37,0.37,0.721,0.75,1.061,1.14c0.35,0.37,0.67,0.79,0.989,1.17
			c0.311,0.4,0.62,0.79,0.921,1.19c0.569,0.79,1.109,1.58,1.579,2.34c0.101,0.14,0.19,0.29,0.271,0.43
			c0.415,1.382,0.709,2.949,0.262,4.352c2.291,1.172,4.522,2.497,6.683,3.965C61.216,21.082,62.812,20.789,65.405,17.37z"/>
	</g>
</g>

</svg>
