<?xml version="1.0" encoding="utf-8"?><svg xmlns="http://www.w3.org/2000/svg" xmlns:xlink="http://www.w3.org/1999/xlink"><symbol viewBox="0 0 26 23" id="basket"><path d="M21.34 1.643l2.79 19.715H1.87L4.66 1.644h16.68M22.75 0H3.25L0 23h26L22.75 0zM19.5 4.929a1.625 1.625 0 1 0-2.53 1.33C16.58 9.209 14.92 11.5 13 11.5S9.42 9.209 9.03 6.259a1.61 1.61 0 1 0-1.62.129c.47 3.884 2.75 6.756 5.59 6.756s5.12-2.872 5.59-6.756a1.64 1.64 0 0 0 .91-1.459z"/></symbol><symbol viewBox="0 0 55 67" id="choice"><path d="M28.011 4.79h-1.486a1.433 1.433 0 0 1-1.437-1.43v-.05A3.323 3.323 0 0 0 21.749 0h-.077a3.323 3.323 0 0 0-3.338 3.31v.05a1.434 1.434 0 0 1-1.438 1.43H15.41a2.852 2.852 0 0 0-2.866 2.84v.06a2.852 2.852 0 0 0 2.866 2.84h12.6a2.852 2.852 0 0 0 2.866-2.84v-.06a2.852 2.852 0 0 0-2.865-2.84zm-6.3 0a1.44 1.44 0 1 1 1.447-1.44 1.447 1.447 0 0 1-1.447 1.44zm6.443 55.51H3.86a3.842 3.842 0 0 1-3.859-3.83V10.53c0-2.12 1.728-3.83 2.894-3.83h7.82a4.961 4.961 0 0 0-.1.99 4.778 4.778 0 0 0 4.795 4.75h12.6a4.79 4.79 0 0 0 4.8-4.81 4.731 4.731 0 0 0-.1-.93h5.89c3.1 0 4.825 1.71 4.825 3.83v28.76c-.321-.02-.64-.05-.965-.05a15.363 15.363 0 0 0-3.86.51V17.23H4.825v38.28h22.241a15.082 15.082 0 0 0 1.088 4.79zm14.3-18.19A12.445 12.445 0 1 0 55 54.56a12.5 12.5 0 0 0-12.544-12.45zm8.2 9.89l-7.719 8.62a1.943 1.943 0 0 1-2.648.22l-4.824-3.83a1.9 1.9 0 0 1-.3-2.69 1.936 1.936 0 0 1 2.712-.3l3.394 2.69 6.5-7.25a1.933 1.933 0 0 1 2.724-.16 1.9 1.9 0 0 1 .159 2.7zm-16.88-18.5H8.685a.963.963 0 0 1-.965-.96v-.95a.963.963 0 0 1 .965-.96h25.087a.963.963 0 0 1 .965.96v.95a.963.963 0 0 1-.965.96zm0-8.61H8.685a.963.963 0 0 1-.965-.96v-.96a.963.963 0 0 1 .965-.96h25.087a.963.963 0 0 1 .965.96v.96a.963.963 0 0 1-.965.96zm-4.825 16.27H8.685a.963.963 0 0 1-.965-.96v-.96a.954.954 0 0 1 .965-.95h20.262a.954.954 0 0 1 .965.95v.96a.963.963 0 0 1-.965.96zm-1.929 8.61H8.685a.963.963 0 0 1-.965-.96v-.95a.963.963 0 0 1 .965-.96h18.333a.963.963 0 0 1 .965.96v.95a.964.964 0 0 1-.965.96z"/></symbol><symbol viewBox="0 0 59 67" id="delivery"><path d="M.368 11.56a7.243 7.243 0 0 1 13.757-4.54l14.233 43.1a9.477 9.477 0 0 0-4.145-.15L10.434 8.24a3.356 3.356 0 1 0-6.374 2.1 1.944 1.944 0 0 1-3.692 1.22zm56.078 33.81l-23.32 7.69a9.42 9.42 0 0 1 1.9 3.31c.015.05.023.09.037.14l22.6-7.45a1.943 1.943 0 1 0-1.217-3.69zM33.18 56.98a7.634 7.634 0 1 1-9.643-4.85 7.633 7.633 0 0 1 9.643 4.85zm-3.625 1.2a3.817 3.817 0 1 0-2.429 4.81 3.82 3.82 0 0 0 2.429-4.81zm21-42.05l7.917 23.98a.959.959 0 0 1-.618 1.22l-24.919 8.22a.971.971 0 0 1-1.227-.62l-7.917-23.98a.969.969 0 0 1 .618-1.22l24.919-8.22a.979.979 0 0 1 1.224.62zm-3.3 13.93l-8.485-4.67-4.039 8.8 2.674 1.23 1.746-3.81 3.154 9.55 3.018-.99-3.153-9.55 3.668 2.02zm-7.4-14.31L34.793.43a.619.619 0 0 0-.785-.4l-4.34 1.43-.021.04-.036-.02-2.29.76 1.886 5.71-2.583.85-1.886-5.71-2.291.75-.017.04-.041-.02-4.312 1.42a.626.626 0 0 0-.4.79l5.062 15.33a.621.621 0 0 0 .785.39l15.932-5.25a.626.626 0 0 0 .396-.79z"/></symbol><symbol viewBox="0 0 25 22" id="favorite"><path d="M18.29 0A6.513 6.513 0 0 0 14 1.637a1.663 1.663 0 0 1-3 0A6.513 6.513 0 0 0 6.71 0 6.891 6.891 0 0 0 0 7.044a8.543 8.543 0 0 0 1.88 5.087l6 7.687a5.154 5.154 0 0 0 8.27.2l6.76-7.882A8.246 8.246 0 0 0 25 7.045 6.891 6.891 0 0 0 18.29 0zm3.39 11.021l-6.73 7.857a3.593 3.593 0 0 1-5.82-.14l-5.98-7.66a6.939 6.939 0 0 1-1.53-4.033 5.225 5.225 0 0 1 5.09-5.342 4.94 4.94 0 0 1 3.25 1.24 3.075 3.075 0 0 0 5.08 0 4.945 4.945 0 0 1 3.25-1.24 5.225 5.225 0 0 1 5.09 5.342 6.492 6.492 0 0 1-1.7 3.977z"/></symbol><symbol viewBox="0 0 32.406 27.969" id="heart"><path d="M30.006 14.03a8.268 8.268 0 0 0 0-11.619 8.081 8.081 0 0 0-5.9-2.406c-2.979.051-7.893 4.028-7.893 4.028S11.162-.001 8.113.004a8.086 8.086 0 0 0-5.745 2.407 8.268 8.268 0 0 0 0 11.619l13.819 13.939z"/></symbol><symbol viewBox="0 0 28 28" id="plus"><path d="M27.391 17.044H17.044v10.348a.609.609 0 0 1-.609.608h-4.87a.608.608 0 0 1-.608-.608V17.044H.609A.609.609 0 0 1 0 16.435v-4.869a.61.61 0 0 1 .609-.61h10.348V.609A.609.609 0 0 1 11.565 0h4.87a.609.609 0 0 1 .609.609v10.347h10.347a.609.609 0 0 1 .609.61v4.869a.609.609 0 0 1-.609.609z"/></symbol><symbol viewBox="0 0 23 23" id="profile"><path d="M11.5 15.813c3.57 0 6.47-3.547 6.47-7.906S15.07 0 11.5 0a5.92 5.92 0 0 0-4.63 2.376 8.837 8.837 0 0 0-1.84 5.531c0 4.358 2.9 7.906 6.47 7.906zm0-14.374c2.77 0 5.03 2.9 5.03 6.469s-2.26 6.469-5.03 6.469-5.03-2.9-5.03-6.469 2.26-6.47 5.03-6.47zm5.03 12.937a.719.719 0 1 0 0 1.437 5.032 5.032 0 0 1 5.03 5.032.719.719 0 0 1-.72.719H2.16a.719.719 0 0 1-.72-.719 5.039 5.039 0 0 1 5.03-5.032.719.719 0 1 0 0-1.437A6.475 6.475 0 0 0 0 20.845 2.161 2.161 0 0 0 2.16 23h18.68A2.161 2.161 0 0 0 23 20.844a6.475 6.475 0 0 0-6.47-6.469z"/></symbol><symbol viewBox="0 0 61 59" id="recycle"><path d="M.32 19.03l3.818 3.01-3.593 6.93c-1.8 3.19 1.29 6.31 3.256 7.39 1.937 1.07 4.941 1.19 7.749 1.16l5.053-8.32 3.818 2.08-6.625-12.36zM.882 36l8.2 15.25c1.647 2.12 4.754 2.62 7.973 2.54H25.7V39.35l-16.4-.12A10.107 10.107 0 0 1 .882 36zM52.456 7.9l-4.46 1.91-4.279-6.53c-1.9-3.13-6.106-1.92-8-.71-1.865 1.18-3.432 3.77-4.76 6.26l4.775 8.48-3.657 2.35 13.949.16zM37.445.17L20.225 0c-2.638.42-4.579 2.91-6.073 5.78L9.96 13.4l12.544 7 8.049-14.38A10.184 10.184 0 0 1 37.445.17zM38.194 59l.507-4.85 7.742-.6c3.644-.16 4.631-4.45 4.5-6.7-.128-2.22-1.613-4.85-3.134-7.23l-9.683.1-.272-4.37-6.9 12.21zm13.994-9.47l8.5-15.07c.911-2.53-.314-5.45-2.084-8.16l-4.582-7.38-12.163 7.65 8.591 14.06a10.285 10.285 0 0 1 1.738 8.9z"/></symbol><symbol viewBox="0 0 23 23" id="search"><path d="M14.38 0a8.625 8.625 0 0 0-7.63 12.656l-5.99 6a2.533 2.533 0 1 0 3.58 3.584l6-5.994A8.624 8.624 0 1 0 14.38 0zM3.45 21.341a1.287 1.287 0 0 1-.91.39 1.265 1.265 0 0 1-.88-2.178l-.01-.006 5.8-5.8a8.811 8.811 0 0 0 1.79 1.8zm10.93-5.528a7.188 7.188 0 1 1 7.18-7.188 7.19 7.19 0 0 1-7.18 7.188zm0-12.22a5.038 5.038 0 0 0-5.04 5.031.36.36 0 0 0 .72 0 4.314 4.314 0 0 1 4.32-4.312.36.36 0 0 0 0-.718z"/></symbol></svg>