<svg xmlns="http://www.w3.org/2000/svg" viewBox="0 0 328.86 328.86">
    <g>
        <path fill="#ffffff" d="M104,220.43V131.15H83.39V108.27h49.12V220.43H104Z"/>
        <path fill="#ffffff" d="M239.55,137.23a26.21,26.21,0,0,1-14.08,23.2c12.32,5.12,20,15.84,20,28.32,0,20.16-17.92,33-45.92,33s-45.92-12.64-45.92-32.48c0-12.8,8.32-23.68,21.28-28.8-9.44-5.28-15.52-14.24-15.52-24,0-17.92,15.68-29.28,40-29.28C224,107.15,239.55,118.83,239.55,137.23Zm-59,49.12c0,9.44,6.72,14.72,19,14.72s19.2-5.12,19.2-14.72c0-9.28-6.88-14.56-19.2-14.56S180.51,177.07,180.51,186.35Zm2.88-47.52c0,8,5.76,12.48,16.16,12.48s16.16-4.48,16.16-12.48c0-8.32-5.76-13-16.16-13S183.39,130.51,183.39,138.83Z"/>
        <path fill="#e03131" d="M292.86,120.93a135.19,135.19,0,0,1,7.14,43.5C300,239.18,239.18,300,164.43,300S28.86,239.18,28.86,164.43,89.68,28.86,164.43,28.86A135.11,135.11,0,0,1,207.93,36V5.83A164.24,164.24,0,0,0,164.43,0C73.76,0,0,73.76,0,164.43S73.76,328.86,164.43,328.86,328.86,255.1,328.86,164.43a164.26,164.26,0,0,0-5.83-43.5Z"/>
        <polygon fill="#ffffff" points="284.66 44.11 284.66 12.58 261.99 12.58 261.99 44.11 230.65 44.11 230.65 66.78 261.99 66.78 261.99 98.31 284.66 98.31 284.66 66.78 316.19 66.78 316.19 44.11 284.66 44.11"/>
    </g>
</svg>
