<svg xmlns="http://www.w3.org/2000/svg" viewBox="0 0 980 898.3"><title>Ресурс 1</title><g id="Слой_2" data-name="Слой 2"><g id="Слой_1-2" data-name="Слой 1"><path d="M40.8,244.9c-11.4,0-21.1-3.9-29-11.8S0,215.5,0,204.1V40.8c0-11.4,3.9-21.1,11.8-29S29.4,0,40.8,0H204.1c11.4,0,21.1,3.9,29,11.8s11.8,17.6,11.8,29V204.1c0,11.4-3.9,21.1-11.8,29s-17.6,11.8-29,11.8Zm326.7,0c-11.4,0-21.1-3.9-29-11.8s-11.8-17.6-11.8-29V40.8c0-11.4,3.9-21.1,11.8-29S356.1,0,367.5,0H939.2c11.4,0,21.1,3.9,29,11.8S980,29.4,980,40.8V204.1c0,11.4-3.9,21.1-11.8,29s-17.6,11.8-29,11.8ZM40.8,571.6c-11.4,0-21.1-3.9-29-11.8S0,542.2,0,530.8V367.5c0-11.4,3.9-21.1,11.8-29s17.6-11.8,29-11.8H204.1c11.4,0,21.1,3.9,29,11.8s11.8,17.6,11.8,29V530.8c0,11.4-3.9,21.1-11.8,29s-17.6,11.8-29,11.8Zm326.7,0c-11.4,0-21.1-3.9-29-11.8s-11.8-17.6-11.8-29V367.5c0-11.4,3.9-21.1,11.8-29s17.6-11.8,29-11.8H939.2c11.4,0,21.1,3.9,29,11.8s11.8,17.6,11.8,29V530.8c0,11.4-3.9,21.1-11.8,29s-17.6,11.8-29,11.8ZM40.8,898.3c-11.4,0-21.1-3.9-29-11.8A39.68,39.68,0,0,1,0,857.4V694.1c0-11.4,3.9-21.1,11.8-29s17.6-11.8,29-11.8H204.1c11.4,0,21.1,3.9,29,11.8s11.8,17.6,11.8,29V857.4c0,11.4-3.9,21.1-11.8,29s-17.6,11.8-29,11.8H40.8Zm326.7,0c-11.4,0-21.1-3.9-29-11.8s-11.8-17.6-11.8-29V694.1c0-11.4,3.9-21.1,11.8-29s17.6-11.8,29-11.8H939.2c11.4,0,21.1,3.9,29,11.8s11.8,17.6,11.8,29V857.4c0,11.4-3.9,21.1-11.8,29s-17.6,11.8-29,11.8H367.5Z"/></g></g></svg>