<svg xmlns="http://www.w3.org/2000/svg" viewBox="0 0 980 829.2"><title>Ресурс 1</title><g id="Слой_2" data-name="Слой 2"><g id="Слой_1-2" data-name="Слой 1"><path d="M452.3,527.7V753.8c0,20.6-7.7,38.3-22.4,53s-32.4,22.4-53,22.4H75.4c-20.6,0-38.3-7.7-53-22.4S0,774.4,0,753.8V527.7c0-20.6,7.7-38.3,22.4-53s32.4-22.4,53-22.4H376.9c20.6,0,38.3,7.7,53,22.4s22.4,32.4,22.4,53Zm0-452.3V301.6c0,20.6-7.7,38.3-22.4,53s-32.4,22.4-53,22.4H75.4c-20.6,0-38.3-7.7-53-22.4S0,322.2,0,301.6V75.4c0-20.6,7.7-38.3,22.4-53S54.8,0,75.4,0H376.9c20.6,0,38.3,7.7,53,22.4s22.4,32.4,22.4,53ZM980,527.7V753.8c0,20.6-7.7,38.3-22.4,53s-32.4,22.4-53,22.4H603.1c-20.6,0-38.3-7.7-53-22.4s-22.4-32.4-22.4-53V527.7c0-20.6,7.7-38.3,22.4-53s32.4-22.4,53-22.4H904.6c20.6,0,38.3,7.7,53,22.4s22.4,32.4,22.4,53Zm0-452.3V301.6c0,20.6-7.7,38.3-22.4,53s-32.4,22.4-53,22.4H603.1c-20.6,0-38.3-7.7-53-22.4s-22.4-32.4-22.4-53V75.4c0-20.6,7.7-38.3,22.4-53S582.5,0,603.1,0H904.6c20.6,0,38.3,7.7,53,22.4S980,54.8,980,75.4Z"/></g></g></svg>